PathFileType	4	(X/Y/Z)	2014001\dynamic\2014001_C3_05.trc
DataRate	CameraRate	NumFrames	NumMarkers	Units	OrigDataRate	OrigDataStartFrame	OrigNumFrames
100.000000	100.000000	4	52	mm	100.000000	21	172
Frame#	Time	L_IAS			L_IPS			R_IPS			R_IAS			L_FTC			L_FLE			L_FME			L_FAX			L_TTC			L_FAL			L_TAM			L_FCC			L_FM1			L_FM2			L_FM5			R_FTC			R_FLE			R_FME			R_FAX			R_TTC			R_FAL			R_TAM			R_FCC			R_FM1			R_FM2			R_FM5			CV7			TV10			SXS			SJN			L_SIA			L_SRS			L_SAA			L_SAE			L_HLE			L_HME			L_UOA			L_RSP			L_UHE			L_HM2			L_HM5			R_SIA			R_SRS			R_SAA			R_SAE			R_HLE			R_HME			R_UOA			R_RSP			R_UHE			R_HM2			R_HM5			
		X1	Y1	Z1	X2	Y2	Z2	X3	Y3	Z3	X4	Y4	Z4	X5	Y5	Z5	X6	Y6	Z6	X7	Y7	Z7	X8	Y8	Z8	X9	Y9	Z9	X10	Y10	Z10	X11	Y11	Z11	X12	Y12	Z12	X13	Y13	Z13	X14	Y14	Z14	X15	Y15	Z15	X16	Y16	Z16	X17	Y17	Z17	X18	Y18	Z18	X19	Y19	Z19	X20	Y20	Z20	X21	Y21	Z21	X22	Y22	Z22	X23	Y23	Z23	X24	Y24	Z24	X25	Y25	Z25	X26	Y26	Z26	X27	Y27	Z27	X28	Y28	Z28	X29	Y29	Z29	X30	Y30	Z30	X31	Y31	Z31	X32	Y32	Z32	X33	Y33	Z33	X34	Y34	Z34	X35	Y35	Z35	X36	Y36	Z36	X37	Y37	Z37	X38	Y38	Z38	X39	Y39	Z39	X40	Y40	Z40	X41	Y41	Z41	X42	Y42	Z42	X43	Y43	Z43	X44	Y44	Z44	X45	Y45	Z45	X46	Y46	Z46	X47	Y47	Z47	X48	Y48	Z48	X49	Y49	Z49	X50	Y50	Z50	X51	Y51	Z51	X52	Y52	Z52	

22	0.21	337.7588195800782	857.3180541992192	95.56121063232425	251.7679290771486	899.9000854492192	-74.61139678955081	161.3296203613282	899.9533691406255	-71.76934814453128	101.4746780395508	876.3461303710942	113.9546432495118	389.1535339355471	771.7026367187505	7.773337364196781	388.3955078125002	426.8768005371096	-21.16939926147462	276.6732788085939	394.8694458007815	17.83469963073731	392.4289550781252	391.7000427246096	-71.8407897949219	355.9240722656251	330.2415161132814	-34.25954437255861	339.855682373047	196.9401397705079	-323.8663635253907	259.541229248047	178.1846313476563	-288.2803955078126	283.8889160156251	208.2873535156251	-369.6311950683595	276.0960998535157	57.57072067260745	-280.9345092773439	335.1531066894532	57.27173614501956	-282.5415344238282	368.6721191406251	87.24404144287112	-323.6347961425782	33.75959777832033	778.0191040039067	35.84690093994142	81.02040863037112	441.8403015136721	152.3375244140626	199.7208862304689	437.313415527344	158.182113647461	78.01519012451175	375.6953735351564	143.6408843994141	133.5145874023438	375.9820556640626	203.6992187500001	129.6730957031251	65.80485534667972	116.2805404663087	213.9169464111329	83.82314300537112	150.6665954589844	184.7955932617188	24.43564414978029	72.93386840820315	205.4383544921876	23.41975784301759	259.8334045410157	140.9805145263672	35.7941360473633	266.2999267578126	93.41253662109378	23.78006553649903	207.3075561523439	201.8275146484376	1367.7421875	-41.62487792968751	210.3269500732423	1134.869262695313	-100.276725769043	212.040740966797	1143.81884765625	134.5617065429688	203.9938507080079	1305.255981445313	88.64540100097659	306.9198608398439	1177.747680664063	-103.1710662841797	292.7739257812501	1307.964477539063	-82.30947875976565	400.2334594726565	1309.678344726563	-5.851392269134523	382.0372924804689	1321.191772460938	33.19334411621095	470.8804626464846	1040.248779296875	22.41954231262208	397.8544921875002	1002.593566894532	-5.2542781829834	448.8554992675784	1001.116394042969	-8.544095039367679	425.2991638183596	822.839233398438	146.5492553710938	495.4396972656252	813.9314575195317	108.7611312866212	430.8695068359377	747.5428466796877	191.1372833251954	499.5636291503909	736.6926269531252	117.335319519043	100.5139846801758	1171.019653320313	-107.204948425293	119.0555953979493	1295.724853515625	-80.85710144042972	13.18908786773682	1293.9541015625	-10.23226642608643	22.70023918151856	1297.082275390625	39.52954101562501	-34.33570098876955	996.6001586914067	-23.47353744506837	43.42795562744142	984.3518066406255	-45.50194168090822	-2.159465074539185	977.5468750000005	-53.24031829833987	-9.213788032531742	779.3095703125005	53.83363723754886	-67.13645935058597	783.1584472656255	-1.985417246818543	-22.19907379150391	686.0422973632815	70.09209442138675	-64.2687683105469	706.1291503906252	-20.46954154968262	
23	0.22	337.0172424316407	859.7531738281255	106.2988967895508	250.0450897216798	901.535278320313	-63.39237594604495	159.7398681640626	901.7773437500005	-60.22253799438479	100.4776153564454	877.959350585938	125.637435913086	387.4783935546877	773.0561523437505	20.10440826416016	388.4483032226565	427.3670349121096	3.329081058502199	275.8572998046876	396.3174743652346	41.59199905395509	392.8764953613284	392.3154296875002	-46.7689781188965	355.5431213378907	330.933319091797	-9.640542030334476	340.5998535156251	200.9351043701173	-300.9578552246095	259.9024353027345	181.7644958496094	-266.1908264160157	284.9213256835939	212.0061950683595	-347.5007934570314	278.9376831054689	61.24468994140628	-257.612274169922	337.878387451172	61.76149368286136	-259.1645812988282	370.862030029297	92.59266662597659	-300.4846496582032	32.79097366333009	779.599487304688	47.25571060180665	80.590202331543	441.4141235351565	157.3687896728516	199.6262207031251	436.8689575195315	163.2705078125001	77.768180847168	375.2992248535157	147.6960754394532	133.2801818847657	374.8698730468751	207.7198181152345	129.9271545410157	65.8437194824219	116.2765274047852	214.2546844482423	83.6664733886719	150.6810150146485	184.9000549316407	24.45756721496583	72.76798248291018	205.6336822509767	23.37752342224122	259.6481323242189	141.1612701416016	36.05246353149415	266.2431030273439	93.51283264160159	24.00830268859865	207.1610565185548	200.806365966797	1369.811401367188	-30.03179740905763	208.6192626953126	1136.901000976563	-88.93147277832034	212.0195159912111	1145.8271484375	145.8961639404297	203.8093872070314	1307.182983398438	100.0889358520508	304.9052734375001	1179.723022460938	-92.4147872924805	291.376434326172	1309.988647460938	-71.41491699218753	399.4116821289065	1311.400390625	4.311661243438722	381.5853881835939	1322.836669921875	43.52895736694337	469.3731079101565	1041.758666992188	30.29230117797853	395.942321777344	1004.724304199219	2.580896377563477	446.7872619628909	1003.481872558594	-1.079699754714966	426.3039550781252	821.0333862304692	149.2468261718751	496.2390747070315	813.8735961914067	110.483512878418	432.5589904785159	743.9876098632815	190.8074798583985	500.8765869140627	736.3966064453127	116.2995223999024	98.3337020874024	1173.216796875	-94.91023254394534	117.5223617553712	1297.898681640625	-68.7732849121094	12.17207717895509	1296.229248046875	2.886511325836183	22.38086700439454	1299.333862304688	52.5121879577637	-37.03924942016603	998.4353637695317	-5.591689586639406	40.25072479248048	985.467895507813	-29.05849456787111	-5.485114574432375	978.8462524414067	-35.91439437866212	-11.62671852111817	782.2946777343755	74.45513153076175	-70.61724090576175	785.6570434570317	19.63743209838868	-25.25434875488283	689.5200805664065	92.64182281494143	-68.67270660400393	708.4243164062502	2.409526824951173	
24	0.23	336.3564758300782	862.2965698242192	116.9256973266602	248.3882141113282	903.3209838867192	-52.31545639038089	158.1944580078126	903.6602172851567	-48.77644729614261	99.60033416748053	879.5778808593755	137.1771392822266	385.8977050781252	774.6607055664067	32.26951599121095	388.3423767089846	428.3864746093752	27.70055198669435	274.8838500976564	398.3322448730471	65.21982574462893	393.0799255371096	393.3129577636721	-21.75804328918458	355.0310974121095	332.1058959960939	15.15826225280762	341.3289794921876	203.9386444091798	-277.1025695800782	260.2433166503907	184.6198425292969	-243.1205444335939	286.0114746093751	214.3394775390626	-324.5989074707032	281.5798645019532	64.46799468994143	-232.297821044922	340.4331359863282	65.85346221923831	-233.6323089599611	372.9544372558595	96.94141387939459	-275.4282531738282	31.89389228820802	781.1443481445317	58.41955184936526	80.15126800537112	441.0292663574221	161.9027099609376	199.5413360595704	436.4546813964846	167.8892822265626	77.49961853027347	374.9295654296876	151.3064270019532	133.0287017822266	373.8192138671876	211.253143310547	130.1242218017579	65.86179351806643	116.2341384887696	214.5133666992189	83.55977630615237	150.6605377197266	184.9976348876954	24.47683143615724	72.57334136962893	205.7199554443361	23.40086555480958	259.4820251464845	141.2720031738282	36.23778152465822	266.1460266113282	93.61616516113284	24.09404182434083	207.0086669921876	199.8780670166017	1371.907470703125	-18.56092834472657	206.9753875732423	1138.954223632813	-77.71761322021487	212.0970916748048	1147.861083984375	157.0634765625001	203.7380523681642	1309.138916015625	111.3911285400391	302.9349670410157	1181.734252929688	-81.7922286987305	290.0471801757814	1312.045532226563	-60.68261337280276	398.6598205566409	1313.172973632813	14.271146774292	381.2329101562501	1324.530395507813	53.66043090820315	467.9570312500002	1043.348510742188	38.00498199462892	394.1561584472659	1006.916870117188	10.29100704193116	444.8291015625002	1005.928283691407	6.245000362396244	427.3183593750002	819.5944213867192	151.8108825683594	497.0281066894534	814.1438598632817	112.1369018554688	434.2132568359377	740.9293212890627	190.3589172363282	502.1465454101565	736.5215454101565	115.2484817504883	96.23719787597662	1175.522338867188	-82.82844543457034	116.0795059204102	1300.130004882813	-56.82980728149417	11.28321933746338	1298.565185546875	15.88254928588868	22.20836639404298	1301.631591796875	65.36649322509768	-39.64603805541994	1000.424987792969	12.23272609710694	37.1592254638672	986.6850585937505	-12.65097999572755	-8.709535598754886	980.2758178710942	-18.62569808959962	-14.05138874053956	785.6183471679692	95.24445343017581	-74.03509521484378	788.4475708007817	41.38392257690431	-28.40001869201662	693.3796386718752	115.4963302612305	-73.07563781738284	711.0375976562502	25.54051017761232	
25	0.24	335.720428466797	864.9157714843755	127.5227661132813	246.8381805419923	905.235717773438	-41.34214019775392	156.7249603271485	905.5737304687505	-37.41588592529298	98.79423522949224	881.1837768554692	148.5698242187501	384.4372558593752	776.4973144531255	44.34917449951173	388.0873107910159	429.926452636719	51.83961105346683	273.806121826172	400.8697509765627	88.654411315918	393.0541992187502	394.6836853027346	3.086068868637087	354.4211425781251	333.7489624023439	40.0480308532715	342.0480957031251	205.8580017089845	-252.3701934814454	260.5816955566407	186.6478118896485	-219.1208801269532	287.1534729003907	215.2378234863282	-300.9580993652345	283.946502685547	67.11376953125003	-205.1948394775392	342.7333984375001	69.38259124755862	-206.1698455810548	374.897186279297	100.1722640991212	-248.6303558349611	31.06517219543458	782.635375976563	69.33460998535159	79.70475006103518	440.7000427246096	166.0129852294922	199.4462280273439	436.0881958007815	172.0927734375001	77.2080001831055	374.6047363281251	154.5402526855469	132.7536010742188	372.8499450683595	214.3689422607423	130.2621002197266	65.87592315673831	116.1900634765626	214.6946105957032	83.49904632568362	150.6487579345704	185.0802154541016	24.52221298217775	72.37728118896487	205.7200164794923	23.44830322265626	259.3509216308595	141.3199157714844	36.33006668090822	266.0475158691407	93.70208740234378	24.05724334716798	206.8694763183595	199.0391082763673	1374.006469726563	-7.212821006774906	205.3975982666017	1140.996704101563	-66.60686492919925	212.2516326904298	1149.910888671875	168.0917968750001	203.768768310547	1311.115600585938	122.563087463379	301.0241088867189	1183.752075195313	-71.283317565918	288.7806091308595	1314.100341796875	-50.09747695922854	397.9636230468752	1314.979614257813	24.03472900390626	380.9716186523439	1326.260864257813	63.59375762939456	466.632751464844	1045.004516601563	45.53948974609376	392.4915161132815	1009.156799316407	17.87662315368653	442.9819641113284	1008.434997558594	13.41972064971925	428.3363342285159	818.5180053710942	154.2791290283204	497.7969360351565	814.7149047851567	113.7507400512696	435.8221130371096	738.366394042969	189.8679199218751	503.361022949219	737.0364379882815	114.2416458129883	94.21997833251956	1177.895629882813	-70.91620635986331	114.7245101928712	1302.380615234375	-45.01332473754884	10.51514148712159	1300.945556640625	28.75474548339845	22.16371726989747	1303.972778320313	78.08988952636722	-42.15011596679689	1002.567077636719	29.94331359863283	34.16932678222658	988.0073242187505	3.694469928741457	-11.81986618041993	981.8251953125005	-1.402236223220826	-16.46865844726563	789.286010742188	116.1667098999024	-77.35991668701175	791.5327148437505	63.20817184448245	-31.59023094177248	697.636169433594	138.6151123046876	-77.42944335937503	713.9797363281252	48.87825393676761	
